PathFileType	4	(X/Y/Z)	W12_1_OpenSim.trc																																																																																																																						
DataRate	CameraRate	NumFrames	NumMarkers	Units	OrigDataRate	OrigDataStartFrame	OrigNumFrames																																																																																																																		
100	100	4	40	mm	100	1126	3000																																																																																																																		
Frame#	Time	R.ASIS			R.PSIS			S2			L.PSIS			L.ASIS			R.TH1			R.TH2			R.TH3			R.MKnee			R.Knee			R.SH1			R.SH2			R.SH3			R.SH4			R.Ankle			R.MAnkle			R.Heel			R.MT5			R.MT1			L.TH1			L.TH2			L.TH3			L.TH4			L.MKnee			L.Knee			L.SH1			L.SH2			L.SH3			L.Ankle			L.MAnkle			L.Heel			L.MT5			L.MT1			R.Acr			L.Acr			C7			T10			Clav			Sternum			R.Back		
		X1	Y1	Z1	X2	Y2	Z2	X3	Y3	Z3	X4	Y4	Z4	X5	Y5	Z5	X6	Y6	Z6	X7	Y7	Z7	X8	Y8	Z8	X9	Y9	Z9	X10	Y10	Z10	X11	Y11	Z11	X12	Y12	Z12	X13	Y13	Z13	X14	Y14	Z14	X15	Y15	Z15	X16	Y16	Z16	X17	Y17	Z17	X18	Y18	Z18	X19	Y19	Z19	X20	Y20	Z20	X21	Y21	Z21	X22	Y22	Z22	X23	Y23	Z23	X24	Y24	Z24	X25	Y25	Z25	X26	Y26	Z26	X27	Y27	Z27	X28	Y28	Z28	X29	Y29	Z29	X30	Y30	Z30	X31	Y31	Z31	X32	Y32	Z32	X33	Y33	Z33	X34	Y34	Z34	X35	Y35	Z35	X36	Y36	Z36	X37	Y37	Z37	X38	Y38	Z38	X39	Y39	Z39	X40	Y40	Z40
1126	11.25	978.9724	1065.0193	-436.6814	790.9096	1067.8162	-531.772	784.5146	1065.7296	-577.115	792.0397	1074.8195	-626.6606	972.3474	1069.8499	-729.79	1041.4791	757.1835	-415.1174	966.5263	724.0926	-408.7036	1011.848	623.6603	-414.8686	1077.6514	518.3293	-537.1824	1064.0521	524.4228	-417.6386	972.6883	391.5212	-415.9504	900.9739	305.6697	-431.3631	910.4939	445.7115	-416.9988	839.0973	357.2388	-422.6549	745.2083	232.3586	-429.4921	790.6324	216.1505	-518.3566	683.2789	251.1641	-493.7428	786.041	119.4611	-396.2971	829.0297	85.6471	-479.8712	995.1726	770.677	-743.0846	997.7183	662.9949	-728.0018	911.7426	763.8711	-751.3781	918.1552	656.2584	-728.4493	979.3414	516.2866	-596.5256	973.8608	517.8987	-707.3922	972.3906	382.2832	-718.0812	890.9868	388.428	-721.4133	884.7498	279.5521	-709.6781	924.7078	80.0499	-695.8022	958.6269	92.6487	-598.9135	862.2257	41.6749	-636.6482	1031.6012	32.9244	-716.0113	1075.5874	45.3716	-617.704	941.818	1478.7346	-429.2045	909.7723	1455.5391	-750.6813	868.0395	1505.2496	-588.2105	827.1488	1179.7623	-575.6951	1004.9656	1408.7889	-594.7138	1029.7535	1265.4203	-582.0858	793.8677	1415.2543	-495.8104
1127	11.26	978.4407	1066.5284	-437.8534	789.9727	1068.8617	-531.835	783.4347	1066.6942	-577.1445	790.716	1075.7544	-626.73	970.7291	1070.5463	-730.8779	1044.4115	761.4581	-414.913	969.9562	727.1143	-408.6641	1016.9103	627.4243	-414.7982	1084.5786	523.0234	-537.2696	1071.0072	528.702	-417.851	984.5601	392.1504	-416.1306	916.5292	303.4614	-431.9354	920.2105	443.7499	-417.6164	852.4231	352.5257	-423.3041	763.9495	223.2772	-429.8737	810.2719	209.279	-518.7947	701.1752	238.761	-494.3152	810.3723	112.7117	-396.4095	855.2766	81.0755	-479.911	989.7907	770.3847	-744.0095	990.5143	662.6882	-728.9233	906.1814	764.9783	-752.2025	910.9104	657.2623	-729.2502	970.027	516.0931	-597.6628	963.6769	517.9495	-708.5606	961.3371	382.3135	-718.9831	879.9619	388.9207	-721.9146	873.1221	280.0971	-710.0814	912.7237	80.0146	-695.8613	946.734	92.7757	-599.0659	850.1899	41.9145	-636.7198	1019.6255	32.9061	-716.1276	1063.6017	45.351	-617.8361	940.0471	1479.6052	-429.2826	909.604	1457.0925	-750.9041	867.2684	1506.4179	-588.7371	826.2756	1180.934	-576.7927	1004.0603	1410.1066	-594.78	1028.8923	1266.7853	-582.4746	792.6215	1416.2197	-497.0969
1128	11.27	977.973	1067.6182	-438.9685	789.0308	1069.5861	-531.7397	782.3236	1067.3387	-577.0197	789.3285	1076.3734	-626.6426	968.9619	1070.975	-731.9851	1047.0663	765.2559	-414.667	973.0827	729.7786	-408.4564	1021.4705	630.7797	-414.6428	1090.6915	527.2314	-537.3494	1077.2385	532.5618	-418.0602	996.2036	392.3095	-416.1906	932.1997	300.7567	-432.3541	929.65	441.0384	-417.9511	865.8355	347.035	-423.6896	783.4069	213.2823	-429.9307	830.5151	201.6453	-518.8815	719.888	225.1794	-494.5285	835.6232	105.5366	-396.1874	882.376	76.2715	-479.6122	984.3466	769.9843	-744.8325	983.286	662.2886	-729.7165	900.5936	765.934	-752.977	903.6616	658.1537	-730.0008	960.7384	515.8492	-598.7353	953.5621	517.9535	-709.6097	950.3468	382.3197	-719.82	869.0023	389.4043	-722.3709	861.5912	280.6185	-710.4189	900.7554	79.9944	-695.9254	934.8241	92.9073	-599.1979	838.141	42.1404	-636.785	1007.6871	32.872	-716.2123	1051.6304	45.3189	-617.9367	938.3363	1480.155	-429.3091	909.4713	1458.3757	-751.0691	866.5195	1507.3257	-589.1997	825.4213	1181.8131	-577.7759	1003.1818	1411.1288	-594.8192	1028.0355	1267.8163	-582.855	791.4053	1416.9012	-498.3101
1129	11.28	977.5894	1068.3286	-440.0363	788.1082	1070.0353	-531.5165	781.2079	1067.7122	-576.7706	787.9128	1076.7197	-626.429	967.0778	1071.1429	-733.1011	1049.4388	768.537	-414.4344	975.907	732.0538	-408.1184	1025.53	633.6838	-414.4492	1095.996	530.8791	-537.4703	1082.7532	535.9656	-418.2979	1007.615	392.0445	-416.1467	947.9539	297.6539	-432.5733	938.853	437.6247	-418.0338	879.3808	340.8634	-423.8023	803.604	202.5559	-429.6611	851.3715	193.4071	-518.6086	739.4853	210.6189	-494.3649	861.7539	98.1348	-395.6167	910.234	71.4151	-478.9553	978.8803	769.4814	-745.525	976.0774	661.8052	-730.3633	895.0277	766.7409	-753.6994	896.4534	658.9331	-730.6959	951.4873	515.5507	-599.7148	943.5646	517.891	-710.4928	939.4499	382.3064	-720.5824	858.142	389.8815	-722.7945	850.1796	281.1225	-710.7105	888.7985	79.992	-695.9902	922.895	93.0393	-599.316	826.109	42.3277	-636.835	995.7689	32.8285	-716.2793	1039.6633	45.2855	-618.009	936.7084	1480.3689	-429.287	909.3634	1459.3738	-751.1868	865.8048	1507.9719	-589.594	824.5897	1182.4037	-578.6387	1002.3412	1411.834	-594.8362	1027.1864	1268.4955	-583.2242	790.2276	1417.2982	-499.4394
